<svg width="48" height="47" viewBox="0 0 48 47" fill="none" xmlns="http://www.w3.org/2000/svg">
<circle cx="22.5" cy="24.5" r="22.5" fill="#FFA3EB"/>
<circle cx="25.5" cy="22.5" r="22.5" fill="#0038FF"/>
<path d="M29.0742 26.6875C29.0742 26.2891 29.0117 25.9375 28.8867 25.6328C28.7695 25.3203 28.5586 25.0391 28.2539 24.7891C27.957 24.5391 27.543 24.3008 27.0117 24.0742C26.4883 23.8477 25.8242 23.6172 25.0195 23.3828C24.1758 23.1328 23.4141 22.8555 22.7344 22.5508C22.0547 22.2383 21.4727 21.8828 20.9883 21.4844C20.5039 21.0859 20.1328 20.6289 19.875 20.1133C19.6172 19.5977 19.4883 19.0078 19.4883 18.3438C19.4883 17.6797 19.625 17.0664 19.8984 16.5039C20.1719 15.9414 20.5625 15.4531 21.0703 15.0391C21.5859 14.6172 22.1992 14.2891 22.9102 14.0547C23.6211 13.8203 24.4141 13.7031 25.2891 13.7031C26.5703 13.7031 27.6562 13.9492 28.5469 14.4414C29.4453 14.9258 30.1289 15.5625 30.5977 16.3516C31.0664 17.1328 31.3008 17.9688 31.3008 18.8594H29.0508C29.0508 18.2188 28.9141 17.6523 28.6406 17.1602C28.3672 16.6602 27.9531 16.2695 27.3984 15.9883C26.8438 15.6992 26.1406 15.5547 25.2891 15.5547C24.4844 15.5547 23.8203 15.6758 23.2969 15.918C22.7734 16.1602 22.3828 16.4883 22.125 16.9023C21.875 17.3164 21.75 17.7891 21.75 18.3203C21.75 18.6797 21.8242 19.0078 21.9727 19.3047C22.1289 19.5938 22.3672 19.8633 22.6875 20.1133C23.0156 20.3633 23.4297 20.5938 23.9297 20.8047C24.4375 21.0156 25.043 21.2188 25.7461 21.4141C26.7148 21.6875 27.5508 21.9922 28.2539 22.3281C28.957 22.6641 29.5352 23.043 29.9883 23.4648C30.4492 23.8789 30.7891 24.3516 31.0078 24.8828C31.2344 25.4062 31.3477 26 31.3477 26.6641C31.3477 27.3594 31.207 27.9883 30.9258 28.5508C30.6445 29.1133 30.2422 29.5938 29.7188 29.9922C29.1953 30.3906 28.5664 30.6992 27.832 30.918C27.1055 31.1289 26.293 31.2344 25.3945 31.2344C24.6055 31.2344 23.8281 31.125 23.0625 30.9062C22.3047 30.6875 21.6133 30.3594 20.9883 29.9219C20.3711 29.4844 19.875 28.9453 19.5 28.3047C19.1328 27.6562 18.9492 26.9062 18.9492 26.0547H21.1992C21.1992 26.6406 21.3125 27.1445 21.5391 27.5664C21.7656 27.9805 22.0742 28.3242 22.4648 28.5977C22.8633 28.8711 23.3125 29.0742 23.8125 29.207C24.3203 29.332 24.8477 29.3945 25.3945 29.3945C26.1836 29.3945 26.8516 29.2852 27.3984 29.0664C27.9453 28.8477 28.3594 28.5352 28.6406 28.1289C28.9297 27.7227 29.0742 27.2422 29.0742 26.6875Z" fill="#FFA3EB"/>
</svg>
