<svg width="30" height="39" viewBox="0 0 30 39" fill="none" xmlns="http://www.w3.org/2000/svg">
<path d="M3.67933 6.77649C3.67933 11.0657 3.27765 15.2402 3.70206 19.4844C3.94738 21.9375 4.29725 24.3719 4.52046 26.8272C4.73904 29.2316 4.71635 31.8394 5.22519 34.1928C5.3601 34.8167 4.9268 37.8286 5.72532 37.8756C7.56165 37.9836 9.44039 37.1541 11.295 37.0344C16.5645 36.6945 21.6884 35.4204 26.9809 35.4204C27.8566 35.4204 29.5519 35.112 28.8223 33.9654C27.1937 31.4062 26.418 27.2056 25.776 24.2811C24.7158 19.4513 23.1974 14.4425 22.5934 9.54994C22.3592 7.65281 22.0159 5.97415 21.5022 4.13943C21.2474 3.22931 21.5244 2.06978 21.0703 1.25231C20.4431 0.123405 11.9403 3.04738 10.2265 3.0937C7.64176 3.16356 3.02186 3.66842 0.814941 5.13969" stroke="#313131" stroke-linecap="round"/>
<path d="M6.54382 11.2776C6.54382 13.3129 6.43095 15.3839 6.54382 17.4156C6.58971 18.2416 6.78658 19.6333 6.97575 20.4846C7.22115 21.5889 7.13851 22.5945 7.99874 22.3487C9.86458 21.8156 11.8515 20.6945 13.7048 19.8708C15.0791 19.26 17.9008 18.9256 18.9107 17.9157C20.051 16.7754 18.64 13.3284 18.0923 12.096C17.8269 11.4989 17.5922 9.66312 17.5922 9.02702C17.5922 7.35146 17.7294 7.22334 16.16 7.57209C14.4822 7.94493 12.8095 9.16589 11.2269 9.61808C9.66303 10.0649 8.29171 11.6868 6.54382 11.6868" stroke="#313131" stroke-linecap="round"/>
<path d="M10.3174 31.6467C9.80623 31.1355 10.2264 28.3828 10.2264 27.6456C12.5008 27.6456 15.3382 27.4962 17.0919 25.9179C17.6859 25.3833 19.2288 24.1133 19.2288 25.1904C19.2288 26.4851 19.6593 27.3864 20.5473 28.3731C20.9808 28.8548 15.2944 30.3403 14.3184 30.8283C13.5987 31.1881 11.0788 32.408 10.3174 31.6467Z" stroke="#313131" stroke-linecap="round"/>
</svg>
