<svg width="17" height="30" viewBox="0 0 17 30" fill="none" xmlns="http://www.w3.org/2000/svg">
<rect width="17" height="30" fill="#1E1E1E"/>
<g clip-path="url(#clip0_0_1)">
<rect width="390" height="844" transform="translate(-29 -370)" fill="white"/>
<g filter="url(#filter0_d_0_1)">
<rect y="-30" width="333" height="91" fill="white"/>
</g>
<path d="M0 0H2C10.2843 0 17 6.71573 17 15C17 23.2843 10.2843 30 2 30H0V0Z" fill="#FFA3EB" fill-opacity="0.5"/>
<g filter="url(#filter1_d_0_1)">
<path d="M4.7439 11.4091C5.37728 11.4091 5.88209 11.18 6.28649 10.6654C6.52449 10.3624 6.8512 9.53381 6.8512 10.3486C6.8512 13.6358 6.8512 16.923 6.8512 20.2102" stroke="#0038FF" stroke-linecap="round"/>
<path d="M4 20.4581H10.1979" stroke="#0038FF" stroke-linecap="round"/>
</g>
</g>
<defs>
<filter id="filter0_d_0_1" x="-21" y="-50" width="375" height="133" filterUnits="userSpaceOnUse" color-interpolation-filters="sRGB">
<feFlood flood-opacity="0" result="BackgroundImageFix"/>
<feColorMatrix in="SourceAlpha" type="matrix" values="0 0 0 0 0 0 0 0 0 0 0 0 0 0 0 0 0 0 127 0" result="hardAlpha"/>
<feOffset dy="1"/>
<feGaussianBlur stdDeviation="10.5"/>
<feComposite in2="hardAlpha" operator="out"/>
<feColorMatrix type="matrix" values="0 0 0 0 0 0 0 0 0 0.22 0 0 0 0 1 0 0 0 0.09 0"/>
<feBlend mode="normal" in2="BackgroundImageFix" result="effect1_dropShadow_0_1"/>
<feBlend mode="normal" in="SourceGraphic" in2="effect1_dropShadow_0_1" result="shape"/>
</filter>
<filter id="filter1_d_0_1" x="-0.5" y="9.5" width="15.198" height="19.4581" filterUnits="userSpaceOnUse" color-interpolation-filters="sRGB">
<feFlood flood-opacity="0" result="BackgroundImageFix"/>
<feColorMatrix in="SourceAlpha" type="matrix" values="0 0 0 0 0 0 0 0 0 0 0 0 0 0 0 0 0 0 127 0" result="hardAlpha"/>
<feOffset dy="4"/>
<feGaussianBlur stdDeviation="2"/>
<feComposite in2="hardAlpha" operator="out"/>
<feColorMatrix type="matrix" values="0 0 0 0 0 0 0 0 0 0 0 0 0 0 0 0 0 0 0.25 0"/>
<feBlend mode="normal" in2="BackgroundImageFix" result="effect1_dropShadow_0_1"/>
<feBlend mode="normal" in="SourceGraphic" in2="effect1_dropShadow_0_1" result="shape"/>
</filter>
<clipPath id="clip0_0_1">
<rect width="390" height="844" fill="white" transform="translate(-29 -370)"/>
</clipPath>
</defs>
</svg>
