<svg width="17" height="30" viewBox="0 0 17 30" fill="none" xmlns="http://www.w3.org/2000/svg">
<rect width="17" height="30" fill="#1E1E1E"/>
<g clip-path="url(#clip0_0_1)">
<rect width="390" height="844" transform="translate(-29 -473)" fill="white"/>
<g filter="url(#filter0_d_0_1)">
<rect y="-30" width="333" height="91" fill="white"/>
</g>
<path d="M0 0H2C10.2843 0 17 6.71573 17 15V15C17 23.2843 10.2843 30 2 30H0V0Z" fill="#FFA3EB" fill-opacity="0.5"/>
<path d="M3.05322 12.3974C3.90655 12.3026 7.89349 10.0252 8.37506 11.7107C8.87538 13.4618 8.37784 16.1999 7.61034 17.7349C7.09574 18.7641 6.19171 19.558 5.64391 20.5441C5.43219 20.9252 3.7121 22.2296 4.31736 22.2296C6.32118 22.2296 8.28512 21.1059 10.3571 21.1059" stroke="#0038FF" stroke-linecap="round"/>
</g>
<defs>
<filter id="filter0_d_0_1" x="-21" y="-50" width="375" height="133" filterUnits="userSpaceOnUse" color-interpolation-filters="sRGB">
<feFlood flood-opacity="0" result="BackgroundImageFix"/>
<feColorMatrix in="SourceAlpha" type="matrix" values="0 0 0 0 0 0 0 0 0 0 0 0 0 0 0 0 0 0 127 0" result="hardAlpha"/>
<feOffset dy="1"/>
<feGaussianBlur stdDeviation="10.5"/>
<feComposite in2="hardAlpha" operator="out"/>
<feColorMatrix type="matrix" values="0 0 0 0 0 0 0 0 0 0.22 0 0 0 0 1 0 0 0 0.09 0"/>
<feBlend mode="normal" in2="BackgroundImageFix" result="effect1_dropShadow_0_1"/>
<feBlend mode="normal" in="SourceGraphic" in2="effect1_dropShadow_0_1" result="shape"/>
</filter>
<clipPath id="clip0_0_1">
<rect width="390" height="844" fill="white" transform="translate(-29 -473)"/>
</clipPath>
</defs>
</svg>
