<svg width="35" height="43" viewBox="0 0 35 43" fill="none" xmlns="http://www.w3.org/2000/svg">
<path d="M33.9636 10.353C31.3762 7.17779 28.968 3.30834 25.0701 1.62563C18.3362 -1.28141 9.83106 4.45754 5.03985 8.48598C-0.408627 13.0671 -0.76126 18.6468 3.41988 24.3674C7.78507 30.3398 13.1113 38.9364 20.4506 41.271C23.6677 42.2944 30.5574 43.5131 31.8928 38.9513C33.8753 32.1786 28.0877 24.4597 24.8041 19.1686C22.0075 14.6623 20.6522 11.2468 15.7972 15.203C12.3646 18.0002 12.8957 22.1799 16.3268 25.2777C23.9986 32.2044 27.7827 13.6253 23.5318 8.40873C20.2139 4.33699 12.4308 13.2153 16.6164 16.1329C18.3121 17.3149 16.9904 10.8922 16.3388 15.8676C15.9078 19.1591 18.4081 22.3649 21.7915 22.4836C25.6167 22.6179 29.1904 19.7721 32.0192 17.4671C34.1503 15.7304 33.3149 17.9902 33.6439 19.4609" stroke="black" stroke-linecap="round"/>
</svg>
