<svg width="23" height="30" viewBox="0 0 23 30" fill="none" xmlns="http://www.w3.org/2000/svg">
<path d="M11.1502 23.5724C10.0358 23.5724 8.82598 22.713 7.92092 22.1565C5.99833 20.9744 4.11708 19.7952 2.81225 17.9088C0.449855 14.4935 0.695657 9.94004 1.85934 6.05722C2.1492 5.09003 2.41058 3.61485 3.42105 3.15987C4.40862 2.71521 5.6206 3.1731 6.38567 3.80227C7.75145 4.92544 8.64412 6.4008 9.36352 7.98441C9.46948 8.21765 10.0424 9.92707 10.1841 9.29543C10.7716 6.67642 11.4803 4.09276 13.9031 2.55681C15.6529 1.44751 20.2889 -0.261309 21.4999 2.46503C22.2936 4.25185 22.0045 7.03791 21.5793 8.86279C20.7627 12.3683 19.2141 16.0331 17.4633 19.1805C15.7393 22.2798 13.6921 25.536 12.8178 29" stroke="#313131" stroke-linecap="round"/>
</svg>
