<svg width="43" height="51" viewBox="0 0 43 51" fill="none" xmlns="http://www.w3.org/2000/svg">
<g filter="url(#filter0_d_1_850)">
<path d="M37.9636 10.353C35.3762 7.17779 32.968 3.30834 29.0701 1.62563C22.3362 -1.28141 13.8311 4.45754 9.03985 8.48598C3.59137 13.0671 3.23874 18.6468 7.41988 24.3674C11.7851 30.3398 17.1113 38.9364 24.4506 41.271C27.6677 42.2944 34.5574 43.5131 35.8928 38.9513C37.8753 32.1786 32.0877 24.4597 28.8041 19.1686C26.0075 14.6623 24.6522 11.2468 19.7972 15.203C16.3646 18.0002 16.8957 22.1799 20.3268 25.2777C27.9986 32.2044 31.7827 13.6253 27.5318 8.40873C24.2139 4.33699 16.4308 13.2153 20.6164 16.1329C22.3121 17.3149 20.9904 10.8922 20.3388 15.8676C19.9078 19.1591 22.4081 22.3649 25.7915 22.4836C29.6167 22.6179 33.1904 19.7721 36.0192 17.4671C38.1503 15.7304 37.3149 17.9902 37.6439 19.4609" stroke="black" stroke-linecap="round" shape-rendering="crispEdges"/>
</g>
<defs>
<filter id="filter0_d_1_850" x="0.0808105" y="0.33374" width="42.3828" height="50.3929" filterUnits="userSpaceOnUse" color-interpolation-filters="sRGB">
<feFlood flood-opacity="0" result="BackgroundImageFix"/>
<feColorMatrix in="SourceAlpha" type="matrix" values="0 0 0 0 0 0 0 0 0 0 0 0 0 0 0 0 0 0 127 0" result="hardAlpha"/>
<feOffset dy="4"/>
<feGaussianBlur stdDeviation="2"/>
<feComposite in2="hardAlpha" operator="out"/>
<feColorMatrix type="matrix" values="0 0 0 0 0 0 0 0 0 0 0 0 0 0 0 0 0 0 0.25 0"/>
<feBlend mode="normal" in2="BackgroundImageFix" result="effect1_dropShadow_1_850"/>
<feBlend mode="normal" in="SourceGraphic" in2="effect1_dropShadow_1_850" result="shape"/>
</filter>
</defs>
</svg>
